<svg width="398.16505126953126px" height="121.6174835205078px" xmlns="http://www.w3.org/2000/svg" viewBox="50.91747436523437 14.191258239746098 398.16505126953126 121.6174835205078" style="background: rgba(0, 0, 0, 0);" preserveAspectRatio="xMidYMid"><defs><filter id="editing-neon" x="-100%" y="-100%" width="300%" height="300%"><feFlood flood-color="#00ff2f" result="flood"></feFlood><feComposite operator="in" in="flood" in2="SourceAlpha" result="color"></feComposite><feFlood flood-color="#00ff2f" result="flood2"></feFlood><feComposite operator="in" in="flood2" in2="SourceAlpha" result="color2"></feComposite><feMorphology operator="dilate" radius="2" in="color" result="dilate"></feMorphology><feGaussianBlur stdDeviation="6" in="color" result="blur1"></feGaussianBlur><feGaussianBlur stdDeviation="2.5" in="color" result="blur2"></feGaussianBlur><feGaussianBlur stdDeviation="1" in="SourceAlpha" result="blur3"></feGaussianBlur><feGaussianBlur stdDeviation="6" in="dilate" result="blur4"></feGaussianBlur><feConvolveMatrix in="color2" result="conv" order="3,3" divisor="1" kernelMatrix="1 1 1  1 1 1  1 1 1"></feConvolveMatrix><feMerge><feMergeNode in="blur1"></feMergeNode><feMergeNode in="blur2"></feMergeNode><feMergeNode in="blur4"></feMergeNode><feMergeNode in="blur3"></feMergeNode><feMergeNode in="blur3"></feMergeNode><feMergeNode in="blur3"></feMergeNode><feMergeNode in="blur3"></feMergeNode><feMergeNode in="conv"></feMergeNode><feMergeNode in="SourceGraphic"></feMergeNode></feMerge></filter></defs><g filter="url(#editing-neon)"><g transform="translate(115.00687074661255, 104.44000053405762)"><path d="M-6.98 8.83L-6.98 8.83L-6.98 8.83Q-3.71 8.45-1.66 4.22L-1.66 4.22L-1.66 4.22Q0.45-0.06 2.37-9.92L2.37-9.92L8.58-42.24L22.46-42.24L16.26-9.92L16.26-9.92Q13.89 2.62 9.98 7.55L9.98 7.55L9.98 7.55Q7.94 10.11 5.34 11.14L5.34 11.14L5.34 11.14Q2.75 12.16-0.06 12.16L-0.06 12.16L-0.06 12.16Q-2.88 12.16-4.70 11.14L-4.70 11.14L-4.70 11.14Q-6.53 10.11-6.98 8.83ZM48.83-29.57L48.83-29.57L48.83-29.57Q49.79-31.49 49.79-33.28L49.79-33.28L49.79-33.28Q49.79-35.07 49.60-36.06L49.60-36.06L49.60-36.06Q49.41-37.06 48.96-37.82L48.96-37.82L48.96-37.82Q48-39.49 46.08-39.49L46.08-39.49L46.08-39.49Q43.71-39.49 41.79-37.76L41.79-37.76L41.79-37.76Q39.74-35.97 39.74-33.15L39.74-33.15L39.74-33.15Q39.74-31.36 40.99-29.98L40.99-29.98L40.99-29.98Q42.24-28.61 44.16-27.33L44.16-27.33L44.16-27.33Q46.08-26.05 48.26-24.77L48.26-24.77L48.26-24.77Q50.43-23.49 52.35-21.95L52.35-21.95L52.35-21.95Q56.77-18.43 56.77-13.70L56.77-13.70L56.77-13.70Q56.77-10.50 55.07-7.78L55.07-7.78L55.07-7.78Q53.38-5.06 50.56-3.07L50.56-3.07L50.56-3.07Q44.42 1.28 36.29 1.28L36.29 1.28L36.29 1.28Q29.70 1.28 26.30-0.86L26.30-0.86L26.30-0.86Q22.91-3.01 22.91-6.27L22.91-6.27L22.91-6.27Q22.91-12.10 27.46-13.57L27.46-13.57L27.46-13.57Q28.74-14.02 30.69-14.02L30.69-14.02L30.69-14.02Q32.64-14.02 34.88-13.18L34.88-13.18L34.88-13.18Q33.86-10.56 33.86-8.19L33.86-8.19L33.86-8.19Q33.86-3.07 37.50-3.07L37.50-3.07L37.50-3.07Q39.87-3.07 41.82-4.80L41.82-4.80L41.82-4.80Q43.78-6.53 43.78-8.48L43.78-8.48L43.78-8.48Q43.78-10.43 42.53-11.84L42.53-11.84L42.53-11.84Q41.28-13.25 39.42-14.37L39.42-14.37L39.42-14.37Q37.57-15.49 35.42-16.58L35.42-16.58L35.42-16.58Q33.28-17.66 31.42-19.20L31.42-19.20L31.42-19.20Q27.07-22.72 27.07-28.35L27.07-28.35L27.07-28.35Q27.07-32 28.86-34.85L28.86-34.85L28.86-34.85Q30.66-37.70 33.54-39.62L33.54-39.62L33.54-39.62Q39.30-43.52 46.37-43.52L46.37-43.52L46.37-43.52Q53.44-43.52 56.86-41.41L56.86-41.41L56.86-41.41Q60.29-39.30 60.29-35.71L60.29-35.71L60.29-35.71Q60.29-32.58 57.86-30.59L57.86-30.59L57.86-30.59Q55.74-28.93 53.18-28.93L53.18-28.93L53.18-28.93Q50.62-28.93 48.83-29.57ZM66.75 8.83L66.75 8.83L66.75 8.83Q70.02 8.45 72.06 4.22L72.06 4.22L72.06 4.22Q74.18-0.06 76.10-9.92L76.10-9.92L82.30-42.24L96.19-42.24L89.98-9.92L89.98-9.92Q87.62 2.62 83.71 7.55L83.71 7.55L83.71 7.55Q81.66 10.11 79.07 11.14L79.07 11.14L79.07 11.14Q76.48 12.16 73.66 12.16L73.66 12.16L73.66 12.16Q70.85 12.16 69.02 11.14L69.02 11.14L69.02 11.14Q67.20 10.11 66.75 8.83ZM118.14-2.69L118.14-2.69L118.14-2.69Q115.07 1.28 107.46 1.28L107.46 1.28L107.46 1.28Q103.49 1.28 100.61-1.12L100.61-1.12L100.61-1.12Q97.73-3.52 97.73-6.98L97.73-6.98L97.73-6.98Q97.73-8.90 97.92-9.86L97.92-9.86L102.21-32.64L115.20-33.92L110.53-9.22L110.53-9.22Q110.27-7.81 110.27-6.98L110.27-6.98L110.27-6.98Q110.27-3.26 112.51-3.26L112.51-3.26L112.51-3.26Q115.01-3.26 116.80-6.66L116.80-6.66L116.80-6.66Q117.38-7.74 117.63-9.15L117.63-9.15L122.18-32.64L134.78-33.92L130.05-8.96L130.05-8.96Q129.86-8 129.86-6.98L129.86-6.98L129.86-6.98Q129.86-5.95 130.43-4.83L130.43-4.83L130.43-4.83Q131.01-3.71 132.86-3.46L132.86-3.46L132.86-3.46Q132.48-1.92 131.14-0.90L131.14-0.90L131.14-0.90Q128.32 1.28 125.28 1.28L125.28 1.28L125.28 1.28Q122.24 1.28 120.45 0.19L120.45 0.19L120.45 0.19Q118.66-0.90 118.14-2.69ZM165.31 1.28L165.31 1.28L165.31 1.28Q157.57 1.28 157.57-4.74L157.57-4.74L157.57-4.74Q157.63-6.40 158.14-9.22L158.14-9.22L159.30-15.10L159.30-15.10Q161.02-23.42 161.02-25.28L161.02-25.28L161.02-25.28Q161.02-28.99 158.85-28.99L158.85-28.99L158.85-28.99Q155.20-28.99 153.28-19.46L153.28-19.46L149.50 0L136.64 1.28L143.30-32.70L153.79-33.92L152.77-27.65L152.77-27.65Q155.78-33.92 164.99-33.92L164.99-33.92L164.99-33.92Q169.47-33.92 171.36-32.03L171.36-32.03L171.36-32.03Q173.25-30.14 173.25-25.92L173.25-25.92L173.25-25.92Q173.25-21.95 171.20-12.67L171.20-12.67L171.20-12.67Q170.24-8.51 170.24-6.94L170.24-6.94L170.24-6.94Q170.24-5.38 171.10-4.48L171.10-4.48L171.10-4.48Q171.97-3.58 173.25-3.46L173.25-3.46L173.25-3.46Q172.61-1.28 170.40 0L170.40 0L170.40 0Q168.19 1.28 165.31 1.28ZM182.91-26.75L182.91-26.75L182.91-26.75Q185.09-29.82 188.38-31.87L188.38-31.87L188.38-31.87Q191.68-33.92 195.71-33.92L195.71-33.92L195.71-33.92Q199.74-33.92 201.66-32.64L201.66-32.64L214.21-33.92L209.86-9.34L209.86-9.34Q207.62 3.20 202.88 8.13L202.88 8.13L202.88 8.13Q198.34 12.80 189.50 12.80L189.50 12.80L189.50 12.80Q182.78 12.80 178.94 10.69L178.94 10.69L178.94 10.69Q175.10 8.58 175.10 5.06L175.10 5.06L175.10 5.06Q175.10 2.43 177.09 0.93L177.09 0.93L177.09 0.93Q179.07-0.58 182.14-0.58L182.14-0.58L182.14-0.58Q184.83-0.58 186.88 0.64L186.88 0.64L186.88 0.64Q188.10 1.28 188.67 2.18L188.67 2.18L188.67 2.18Q187.20 3.46 187.20 5.57L187.20 5.57L187.20 5.57Q187.20 8.32 189.76 8.32L189.76 8.32L189.76 8.32Q194.05 8.32 196.48-1.79L196.48-1.79L196.48-1.79Q197.18-4.54 197.76-7.30L197.76-7.30L197.76-7.30Q194.88-3.78 188.35-3.78L188.35-3.78L188.35-3.78Q183.81-3.78 181.18-5.95L181.18-5.95L181.18-5.95Q178.56-8.13 178.56-13.25L178.56-13.25L178.56-13.25Q178.56-16.45 179.65-20.06L179.65-20.06L179.65-20.06Q180.74-23.68 182.91-26.75ZM191.23-13.06L191.23-13.06L191.23-13.06Q191.23-8.70 193.47-8.70L193.47-8.70L193.47-8.70Q195.01-8.70 196.48-10.37L196.48-10.37L196.48-10.37Q197.63-11.71 198.08-13.70L198.08-13.70L201.34-30.14L201.34-30.14Q201.02-30.21 200.70-30.34L200.70-30.34L200.70-30.34Q200.06-30.59 199.23-30.59L199.23-30.59L199.23-30.59Q195.33-30.59 193.02-24.19L193.02-24.19L193.02-24.19Q191.23-19.20 191.23-13.06ZM232-3.52L232-3.52L232-3.52Q230.02 1.28 223.68 1.28L223.68 1.28L223.68 1.28Q220.48 1.28 218.43-0.96L218.43-0.96L218.43-0.96Q216.77-2.82 216.77-4.93L216.77-4.93L216.77-4.93Q216.77-9.73 219.01-20.22L219.01-20.22L223.68-44.80L236.67-46.08L230.46-13.70L230.46-13.70Q229.38-8.96 229.38-7.30L229.38-7.30L229.38-7.30Q229.38-3.65 232-3.52ZM263.36-10.82L263.36-10.82L263.36-10.82Q264.96-9.73 264.96-7.33L264.96-7.33L264.96-7.33Q264.96-4.93 263.74-3.39L263.74-3.39L263.74-3.39Q262.53-1.86 260.54-0.83L260.54-0.83L260.54-0.83Q256.45 1.28 252.03 1.28L252.03 1.28L252.03 1.28Q247.62 1.28 245.02 0.32L245.02 0.32L245.02 0.32Q242.43-0.64 240.70-2.43L240.70-2.43L240.70-2.43Q237.31-5.82 237.31-12.03L237.31-12.03L237.31-12.03Q237.31-21.70 242.56-27.58L242.56-27.58L242.56-27.58Q248.19-33.92 257.98-33.92L257.98-33.92L257.98-33.92Q264.06-33.92 267.07-31.36L267.07-31.36L267.07-31.36Q269.31-29.44 269.31-26.30L269.31-26.30L269.31-26.30Q269.31-15.04 249.86-15.04L249.86-15.04L249.86-15.04Q249.60-13.38 249.60-11.97L249.60-11.97L249.60-11.97Q249.60-9.02 250.91-7.90L250.91-7.90L250.91-7.90Q252.22-6.78 254.66-6.78L254.66-6.78L254.66-6.78Q257.09-6.78 259.68-7.90L259.68-7.90L259.68-7.90Q262.27-9.02 263.36-10.82ZM250.30-17.79L250.30-17.79L250.30-17.79Q254.85-17.79 257.47-20.61L257.47-20.61L257.47-20.61Q260.10-23.30 260.10-27.58L260.10-27.58L260.10-27.58Q260.10-29.06 259.55-29.86L259.55-29.86L259.55-29.86Q259.01-30.66 257.92-30.66L257.92-30.66L257.92-30.66Q256.83-30.66 255.90-30.24L255.90-30.24L255.90-30.24Q254.98-29.82 254.02-28.42L254.02-28.42L254.02-28.42Q251.65-25.22 250.30-17.79Z" fill="none" stroke="#e9ffd4" stroke-width="1"></path></g></g><style>text {
  font-size: 64px;
  font-family: Arial Black;
  dominant-baseline: central;
  text-anchor: middle;
}</style></svg>
